<svg width="38" height="38" viewBox="0 0 38 38" fill="none" xmlns="http://www.w3.org/2000/svg">
<path fill-rule="evenodd" clip-rule="evenodd" d="M0.537842 3.72996C0.537842 2.91752 0.86081 2.13835 1.4357 1.56386C2.01058 0.989373 2.79029 0.66663 3.60331 0.66663H34.1612C34.5641 0.665972 34.9632 0.744735 35.3356 0.898408C35.708 1.05208 36.0464 1.27765 36.3315 1.56219C36.6165 1.84673 36.8426 2.18467 36.9968 2.55665C37.151 2.92862 37.2302 3.32734 37.23 3.72996V34.2666C37.2305 34.6693 37.1514 35.0682 36.9975 35.4403C36.8435 35.8125 36.6176 36.1506 36.3328 36.4355C36.0479 36.7203 35.7096 36.9462 35.3373 37.1003C34.9649 37.2543 34.5659 37.3335 34.1629 37.3333H3.60331C3.2006 37.3333 2.80185 37.254 2.42982 37.1C2.05779 36.9459 1.71978 36.7201 1.43511 36.4355C1.15043 36.1508 0.924664 35.8129 0.770708 35.4411C0.616752 35.0692 0.537623 34.6707 0.537842 34.2683V3.72996ZM15.0613 14.6466H20.0297V17.14C20.7469 15.7066 22.5815 14.4166 25.3384 14.4166C30.6238 14.4166 31.8763 17.2716 31.8763 22.51V32.2133H26.5276V23.7033C26.5276 20.72 25.8104 19.0366 23.9891 19.0366C21.4624 19.0366 20.4117 20.8516 20.4117 23.7033V32.2133H15.0613V14.6466ZM5.88823 31.985H11.2386V14.4166H5.88823V31.9833V31.985ZM12.0041 8.68663C12.0142 9.14442 11.9327 9.59961 11.7644 10.0255C11.596 10.4514 11.3443 10.8394 11.0239 11.1667C10.7034 11.494 10.3208 11.7541 9.89844 11.9316C9.47608 12.1092 9.02247 12.2007 8.56426 12.2007C8.10604 12.2007 7.65244 12.1092 7.23007 11.9316C6.8077 11.7541 6.42508 11.494 6.10466 11.1667C5.78424 10.8394 5.53247 10.4514 5.36413 10.0255C5.19579 9.59961 5.11428 9.14442 5.12436 8.68663C5.14417 7.78805 5.51528 6.93295 6.15823 6.30444C6.80117 5.67593 7.66484 5.32399 8.56426 5.32399C9.46367 5.32399 10.3273 5.67593 10.9703 6.30444C11.6132 6.93295 11.9843 7.78805 12.0041 8.68663Z" fill="#D3AF37"/>
</svg>
