<svg width="38" height="38" viewBox="0 0 38 38" fill="none" xmlns="http://www.w3.org/2000/svg">
<path fill-rule="evenodd" clip-rule="evenodd" d="M11.2683 0.776626C13.2247 0.686626 13.8484 0.666626 18.8319 0.666626C23.8153 0.666626 24.4391 0.688293 26.3938 0.776626C28.3485 0.864959 29.6827 1.17663 30.8502 1.62829C32.0727 2.08996 33.1818 2.81163 34.0991 3.74496C35.0331 4.65996 35.7536 5.76663 36.2139 6.98996C36.6676 8.15663 36.9778 9.48996 37.0678 11.44C37.1579 13.3983 37.1779 14.0216 37.1779 19C37.1779 23.98 37.1562 24.6033 37.0678 26.5583C36.9794 28.5083 36.6676 29.8416 36.2139 31.0083C35.7536 32.2318 35.0319 33.3403 34.0991 34.2566C33.1818 35.19 32.0727 35.91 30.8502 36.37C29.6827 36.8233 28.3485 37.1333 26.3971 37.2233C24.4391 37.3133 23.8153 37.3333 18.8319 37.3333C13.8484 37.3333 13.2247 37.3116 11.2683 37.2233C9.31695 37.135 7.9827 36.8233 6.81522 36.37C5.59091 35.9099 4.48164 35.1887 3.56464 34.2566C2.63129 33.3411 1.90902 32.2331 1.44817 31.01C0.996193 29.8433 0.685978 28.51 0.595916 26.56C0.505854 24.6016 0.48584 23.9783 0.48584 19C0.48584 14.02 0.507521 13.3966 0.595916 11.4433C0.684311 9.48996 0.996193 8.15663 1.44817 6.98996C1.9097 5.76676 2.63252 4.65881 3.56631 3.74329C4.48201 2.81079 5.59016 2.08903 6.81355 1.62829C7.98103 1.17663 9.31529 0.866626 11.2666 0.776626H11.2683ZM26.2453 4.07663C24.3107 3.98829 23.7303 3.96996 18.8319 3.96996C13.9335 3.96996 13.3531 3.98829 11.4184 4.07663C9.62884 4.15829 8.65816 4.45663 8.01105 4.70829C7.15546 5.04163 6.54337 5.43663 5.90126 6.07829C5.29258 6.67004 4.82414 7.39043 4.53031 8.18663C4.27847 8.83329 3.97993 9.80329 3.8982 11.5916C3.80981 13.525 3.79146 14.105 3.79146 19C3.79146 23.895 3.80981 24.475 3.8982 26.4083C3.97993 28.1966 4.27847 29.1666 4.53031 29.8133C4.82384 30.6083 5.2925 31.33 5.90126 31.9216C6.49333 32.53 7.2155 32.9983 8.01105 33.2916C8.65816 33.5433 9.62884 33.8416 11.4184 33.9233C13.3531 34.0116 13.9318 34.03 18.8319 34.03C23.7319 34.03 24.3107 34.0116 26.2453 33.9233C28.0349 33.8416 29.0056 33.5433 29.6527 33.2916C30.5083 32.9583 31.1204 32.5633 31.7625 31.9216C32.3712 31.33 32.8399 30.6083 33.1334 29.8133C33.3853 29.1666 33.6838 28.1966 33.7655 26.4083C33.8539 24.475 33.8723 23.895 33.8723 19C33.8723 14.105 33.8539 13.525 33.7655 11.5916C33.6838 9.80329 33.3853 8.83329 33.1334 8.18663C32.7999 7.33163 32.4046 6.71996 31.7625 6.07829C31.1703 5.47008 30.4494 5.00198 29.6527 4.70829C29.0056 4.45663 28.0349 4.15829 26.2453 4.07663ZM16.4886 24.6516C17.7973 25.196 19.2545 25.2695 20.6113 24.8595C21.9682 24.4495 23.1405 23.5815 23.9281 22.4037C24.7157 21.2259 25.0696 19.8114 24.9295 18.4018C24.7894 16.9922 24.1639 15.6749 23.1599 14.675C22.5198 14.0358 21.7459 13.5463 20.8939 13.2419C20.0418 12.9374 19.1328 12.8256 18.2323 12.9143C17.3318 13.0031 16.4622 13.2903 15.686 13.7552C14.9099 14.2201 14.2466 14.8512 13.7439 15.603C13.2411 16.3549 12.9114 17.2088 12.7785 18.1032C12.6457 18.9977 12.7129 19.9104 12.9754 20.7758C13.2379 21.6412 13.6891 22.4376 14.2966 23.1078C14.9041 23.778 15.6527 24.3053 16.4886 24.6516ZM12.1639 12.3366C13.0396 11.4616 14.0791 10.7675 15.2232 10.2939C16.3673 9.82032 17.5935 9.57658 18.8319 9.57658C20.0702 9.57658 21.2965 9.82032 22.4405 10.2939C23.5846 10.7675 24.6242 11.4616 25.4998 12.3366C26.3755 13.2117 27.0701 14.2505 27.544 15.3938C28.0179 16.5371 28.2618 17.7625 28.2618 19C28.2618 20.2375 28.0179 21.4628 27.544 22.6061C27.0701 23.7494 26.3755 24.7882 25.4998 25.6633C23.7314 27.4305 21.3328 28.4233 18.8319 28.4233C16.3309 28.4233 13.9324 27.4305 12.1639 25.6633C10.3955 23.8961 9.40197 21.4992 9.40197 19C9.40197 16.5007 10.3955 14.1039 12.1639 12.3366ZM30.3532 10.98C30.5702 10.7754 30.7439 10.5294 30.864 10.2566C30.9842 9.98374 31.0483 9.68957 31.0527 9.39151C31.057 9.09344 31.0015 8.79754 30.8894 8.52131C30.7772 8.24508 30.6107 7.99414 30.3998 7.78336C30.1889 7.57257 29.9378 7.40622 29.6614 7.29415C29.3849 7.18209 29.0888 7.12659 28.7905 7.13093C28.4923 7.13528 28.1979 7.19938 27.9249 7.31945C27.6518 7.43952 27.4057 7.61312 27.201 7.82996C26.8029 8.25167 26.585 8.81183 26.5934 9.39151C26.6019 9.97119 26.8361 10.5248 27.2463 10.9347C27.6565 11.3446 28.2105 11.5787 28.7905 11.5871C29.3706 11.5956 29.9312 11.3778 30.3532 10.98Z" fill="#D3AF37"/>
</svg>
