<svg width="41" height="30" viewBox="0 0 41 30" fill="none" xmlns="http://www.w3.org/2000/svg">
<path d="M21.0638 0.997559H21.2865C23.3429 1.00506 33.7626 1.08006 36.572 1.83506C37.4214 2.06548 38.1953 2.51461 38.8165 3.13758C39.4377 3.76054 39.8844 4.53552 40.112 5.38506C40.3647 6.33506 40.5423 7.59256 40.6624 8.89006L40.6874 9.15006L40.7424 9.80006L40.7624 10.0601C40.9251 12.3451 40.9451 14.4851 40.9476 14.9526V15.1401C40.9451 15.6251 40.9226 17.9101 40.7424 20.2901L40.7224 20.5526L40.6999 20.8126C40.5748 22.2426 40.3897 23.6626 40.112 24.7076C39.8851 25.5574 39.4386 26.3328 38.8173 26.9559C38.196 27.5789 37.4217 28.0278 36.572 28.2576C33.67 29.0376 22.6399 29.0926 21.1113 29.0951H20.7561C19.9831 29.0951 16.7858 29.0801 13.4335 28.9651L13.0082 28.9501L12.7906 28.9401L12.3628 28.9226L11.935 28.9051C9.15806 28.7826 6.51373 28.5851 5.29539 28.2551C4.44603 28.0255 3.67193 27.577 3.05065 26.9544C2.42937 26.3318 1.98271 25.557 1.75544 24.7076C1.47775 23.6651 1.29262 22.2426 1.16753 20.8126L1.14752 20.5501L1.12751 20.2901C1.00404 18.5961 0.935622 16.8985 0.922363 15.2001L0.922363 14.8926C0.927367 14.3551 0.947381 12.4976 1.08247 10.4476L1.09999 10.1901L1.10749 10.0601L1.12751 9.80006L1.18254 9.15006L1.20756 8.89006C1.32764 7.59256 1.50527 6.33256 1.75794 5.38506C1.98483 4.53518 2.43131 3.75984 3.05262 3.13676C3.67393 2.51369 4.44823 2.06479 5.29789 1.83506C6.51624 1.51006 9.16057 1.31006 11.9375 1.18506L12.3628 1.16756L12.7931 1.15256L13.0082 1.14506L13.436 1.12756C15.8169 1.051 18.1988 1.00849 20.581 1.00006H21.0638V0.997559ZM16.9334 9.02256V21.0676L27.3331 15.0476L16.9334 9.02256Z" fill="#D3AF37"/>
</svg>
