<svg width="171" height="20" viewBox="0 0 171 20" fill="none" xmlns="http://www.w3.org/2000/svg">
<path d="M9.13783 4.81818V7.77273H0.597346V4.81818H9.13783ZM2.53627 1.42045H6.4695V14.642C6.4695 15.0052 6.5249 15.2884 6.6357 15.4915C6.74649 15.6884 6.90038 15.8269 7.09735 15.907C7.30047 15.987 7.53437 16.027 7.79905 16.027C7.98371 16.027 8.16837 16.0116 8.35303 15.9808C8.53769 15.9439 8.67926 15.9162 8.77774 15.8977L9.39635 18.8246C9.19938 18.8861 8.92239 18.9569 8.56539 19.0369C8.20838 19.1231 7.77443 19.1754 7.26354 19.1939C6.31562 19.2308 5.48466 19.1046 4.77064 18.8153C4.06278 18.526 3.51188 18.0767 3.11794 17.4673C2.724 16.858 2.53011 16.0885 2.53627 15.1591V1.42045ZM14.4976 19L10.6382 4.81818H14.6176L16.815 14.3466H16.9443L19.2341 4.81818H23.1396L25.4663 14.2912H25.5863L27.7468 4.81818H31.717L27.8669 19H23.7028L21.2653 10.081H21.0899L18.6524 19H14.4976ZM39.8674 19.277C38.4332 19.277 37.1929 18.9723 36.1465 18.3629C35.1063 17.7474 34.303 16.8918 33.7367 15.7962C33.1704 14.6944 32.8873 13.4171 32.8873 11.9645C32.8873 10.4995 33.1704 9.21922 33.7367 8.12358C34.303 7.02178 35.1063 6.16619 36.1465 5.55682C37.1929 4.94129 38.4332 4.63352 39.8674 4.63352C41.3016 4.63352 42.5388 4.94129 43.5791 5.55682C44.6255 6.16619 45.4318 7.02178 45.9981 8.12358C46.5644 9.21922 46.8475 10.4995 46.8475 11.9645C46.8475 13.4171 46.5644 14.6944 45.9981 15.7962C45.4318 16.8918 44.6255 17.7474 43.5791 18.3629C42.5388 18.9723 41.3016 19.277 39.8674 19.277ZM39.8859 16.2301C40.5383 16.2301 41.0831 16.0455 41.5201 15.6761C41.9571 15.3007 42.2864 14.7898 42.508 14.1435C42.7358 13.4972 42.8497 12.7616 42.8497 11.9368C42.8497 11.112 42.7358 10.3764 42.508 9.73011C42.2864 9.08381 41.9571 8.57292 41.5201 8.19744C41.0831 7.82197 40.5383 7.63423 39.8859 7.63423C39.2273 7.63423 38.6733 7.82197 38.2239 8.19744C37.7808 8.57292 37.4453 9.08381 37.2176 9.73011C36.996 10.3764 36.8852 11.112 36.8852 11.9368C36.8852 12.7616 36.996 13.4972 37.2176 14.1435C37.4453 14.7898 37.7808 15.3007 38.2239 15.6761C38.6733 16.0455 39.2273 16.2301 39.8859 16.2301ZM58.2202 19L54.3608 4.81818H58.3402L60.5377 14.3466H60.6669L62.9567 4.81818H66.8623L69.189 14.2912H69.309L71.4695 4.81818H75.4397L71.5895 19H67.4255L64.988 10.081H64.8125L62.375 19H58.2202ZM81.4711 10.8011V19H77.5379V0.0909085H81.3603V7.32031H81.5265C81.8466 6.48319 82.3636 5.82765 83.0776 5.35369C83.7917 4.87358 84.6872 4.63352 85.7644 4.63352C86.7493 4.63352 87.6079 4.84896 88.3404 5.27983C89.0791 5.70454 89.6515 6.317 90.0578 7.11719C90.4702 7.91122 90.6733 8.86222 90.6671 9.97017V19H86.7339V10.6719C86.74 9.79782 86.5185 9.11766 86.0691 8.63139C85.6259 8.14512 85.0042 7.90199 84.2041 7.90199C83.6685 7.90199 83.1946 8.01586 82.7822 8.24361C82.3759 8.47135 82.0559 8.80374 81.822 9.24077C81.5942 9.67164 81.4773 10.1918 81.4711 10.8011ZM100.226 19.277C98.7667 19.277 97.5111 18.9815 96.4585 18.3906C95.4121 17.7936 94.6057 16.9503 94.0395 15.8608C93.4732 14.7652 93.19 13.4695 93.19 11.9737C93.19 10.5149 93.4732 9.23461 94.0395 8.13281C94.6057 7.03101 95.4029 6.17235 96.4308 5.55682C97.4649 4.94129 98.6775 4.63352 100.069 4.63352C101.004 4.63352 101.875 4.78433 102.682 5.08594C103.494 5.38139 104.202 5.82765 104.805 6.42472C105.414 7.02178 105.888 7.77273 106.227 8.67756C106.566 9.57623 106.735 10.6288 106.735 11.8352V12.9155H94.7596V10.478H103.032C103.032 9.91169 102.909 9.41004 102.663 8.97301C102.417 8.53598 102.075 8.19437 101.638 7.94815C101.207 7.69579 100.706 7.5696 100.133 7.5696C99.5361 7.5696 99.0068 7.7081 98.5451 7.98508C98.0897 8.25592 97.7326 8.62216 97.4741 9.08381C97.2156 9.5393 97.0833 10.0471 97.0771 10.6072V12.9247C97.0771 13.6264 97.2064 14.2327 97.4649 14.7436C97.7296 15.2545 98.102 15.6484 98.5821 15.9254C99.0622 16.2024 99.6316 16.3409 100.29 16.3409C100.727 16.3409 101.127 16.2794 101.49 16.1562C101.854 16.0331 102.164 15.8485 102.423 15.6023C102.682 15.3561 102.878 15.0545 103.014 14.6974L106.652 14.9375C106.467 15.8116 106.088 16.5748 105.516 17.2273C104.95 17.8736 104.217 18.3783 103.319 18.7415C102.426 19.0985 101.395 19.277 100.226 19.277ZM115.765 19.277C114.306 19.277 113.05 18.9815 111.998 18.3906C110.951 17.7936 110.145 16.9503 109.579 15.8608C109.012 14.7652 108.729 13.4695 108.729 11.9737C108.729 10.5149 109.012 9.23461 109.579 8.13281C110.145 7.03101 110.942 6.17235 111.97 5.55682C113.004 4.94129 114.217 4.63352 115.608 4.63352C116.543 4.63352 117.414 4.78433 118.221 5.08594C119.033 5.38139 119.741 5.82765 120.344 6.42472C120.954 7.02178 121.427 7.77273 121.766 8.67756C122.105 9.57623 122.274 10.6288 122.274 11.8352V12.9155H110.299V10.478H118.571C118.571 9.91169 118.448 9.41004 118.202 8.97301C117.956 8.53598 117.614 8.19437 117.177 7.94815C116.746 7.69579 116.245 7.5696 115.672 7.5696C115.075 7.5696 114.546 7.7081 114.084 7.98508C113.629 8.25592 113.272 8.62216 113.013 9.08381C112.755 9.5393 112.622 10.0471 112.616 10.6072V12.9247C112.616 13.6264 112.745 14.2327 113.004 14.7436C113.269 15.2545 113.641 15.6484 114.121 15.9254C114.601 16.2024 115.171 16.3409 115.829 16.3409C116.266 16.3409 116.666 16.2794 117.03 16.1562C117.393 16.0331 117.704 15.8485 117.962 15.6023C118.221 15.3561 118.418 15.0545 118.553 14.6974L122.191 14.9375C122.006 15.8116 121.628 16.5748 121.055 17.2273C120.489 17.8736 119.756 18.3783 118.858 18.7415C117.965 19.0985 116.934 19.277 115.765 19.277ZM128.774 0.0909085V19H124.841V0.0909085H128.774ZM138.388 19.277C136.929 19.277 135.673 18.9815 134.621 18.3906C133.574 17.7936 132.768 16.9503 132.202 15.8608C131.635 14.7652 131.352 13.4695 131.352 11.9737C131.352 10.5149 131.635 9.23461 132.202 8.13281C132.768 7.03101 133.565 6.17235 134.593 5.55682C135.627 4.94129 136.84 4.63352 138.231 4.63352C139.166 4.63352 140.037 4.78433 140.844 5.08594C141.656 5.38139 142.364 5.82765 142.967 6.42472C143.577 7.02178 144.051 7.77273 144.389 8.67756C144.728 9.57623 144.897 10.6288 144.897 11.8352V12.9155H132.922V10.478H141.194C141.194 9.91169 141.071 9.41004 140.825 8.97301C140.579 8.53598 140.237 8.19437 139.8 7.94815C139.369 7.69579 138.868 7.5696 138.295 7.5696C137.698 7.5696 137.169 7.7081 136.707 7.98508C136.252 8.25592 135.895 8.62216 135.636 9.08381C135.378 9.5393 135.245 10.0471 135.239 10.6072V12.9247C135.239 13.6264 135.368 14.2327 135.627 14.7436C135.892 15.2545 136.264 15.6484 136.744 15.9254C137.224 16.2024 137.794 16.3409 138.452 16.3409C138.889 16.3409 139.289 16.2794 139.653 16.1562C140.016 16.0331 140.327 15.8485 140.585 15.6023C140.844 15.3561 141.041 15.0545 141.176 14.6974L144.814 14.9375C144.629 15.8116 144.251 16.5748 143.678 17.2273C143.112 17.8736 142.379 18.3783 141.481 18.7415C140.588 19.0985 139.557 19.277 138.388 19.277ZM147.464 19V4.81818H151.277V7.29261H151.425C151.683 6.4124 152.117 5.74763 152.726 5.2983C153.336 4.8428 154.038 4.61506 154.832 4.61506C155.029 4.61506 155.241 4.62737 155.469 4.65199C155.696 4.67661 155.896 4.71046 156.069 4.75355V8.24361C155.884 8.18821 155.629 8.13897 155.302 8.09588C154.976 8.05279 154.678 8.03125 154.407 8.03125C153.828 8.03125 153.311 8.15743 152.856 8.4098C152.406 8.65601 152.049 9.00071 151.785 9.44389C151.526 9.88707 151.397 10.398 151.397 10.9766V19H147.464ZM169.902 8.86222L166.301 9.08381C166.24 8.77604 166.107 8.49905 165.904 8.25284C165.701 8.00047 165.433 7.80043 165.101 7.6527C164.775 7.49882 164.384 7.42188 163.928 7.42188C163.319 7.42188 162.805 7.55114 162.386 7.80966C161.968 8.06203 161.759 8.40057 161.759 8.82528C161.759 9.16383 161.894 9.45005 162.165 9.68395C162.436 9.91785 162.9 10.1056 163.559 10.2472L166.126 10.7642C167.505 11.0473 168.532 11.5028 169.21 12.1307C169.887 12.7585 170.225 13.5833 170.225 14.6051C170.225 15.5346 169.951 16.3501 169.403 17.0518C168.862 17.7536 168.117 18.3014 167.169 18.6953C166.227 19.0831 165.141 19.277 163.91 19.277C162.032 19.277 160.537 18.8861 159.423 18.1044C158.315 17.3165 157.665 16.2455 157.474 14.8913L161.343 14.6882C161.46 15.2607 161.743 15.6977 162.193 15.9993C162.642 16.2947 163.217 16.4425 163.919 16.4425C164.608 16.4425 165.162 16.3101 165.581 16.0455C166.006 15.7746 166.221 15.4268 166.227 15.0021C166.221 14.6451 166.07 14.3527 165.775 14.125C165.479 13.8911 165.024 13.7126 164.408 13.5895L161.952 13.1001C160.568 12.8232 159.537 12.343 158.859 11.6598C158.188 10.9766 157.853 10.1056 157.853 9.04688C157.853 8.13589 158.099 7.35109 158.592 6.69247C159.09 6.03385 159.789 5.52604 160.688 5.16903C161.592 4.81203 162.651 4.63352 163.864 4.63352C165.655 4.63352 167.064 5.01207 168.092 5.76918C169.126 6.52628 169.73 7.55729 169.902 8.86222Z" fill="#D3AF37"/>
</svg>
