<svg width="0" height="0" class="hidden">
  <symbol fill="none" xmlns="http://www.w3.org/2000/svg" viewBox="0 0 20 40" id="facebook">
    <path d="M5.63414 40V21.2308H0.780518V14.473H5.63414V8.701C5.63414 4.16528 8.5012 0 15.1075 0C17.7823 0 19.7602 0.2622 19.7602 0.2622L19.6043 6.57284C19.6043 6.57284 17.5872 6.55276 15.386 6.55276C13.0037 6.55276 12.622 7.67536 12.622 9.5386V14.473H19.7937L19.4817 21.2308H12.622V40H5.63414Z" fill="#D3AF37"></path>
  </symbol>
  <symbol fill="none" xmlns="http://www.w3.org/2000/svg" viewBox="0 0 38 38" id="in">
    <path fill-rule="evenodd" clip-rule="evenodd" d="M0.537842 3.72996C0.537842 2.91752 0.86081 2.13835 1.4357 1.56386C2.01058 0.989373 2.79029 0.66663 3.60331 0.66663H34.1612C34.5641 0.665972 34.9632 0.744735 35.3356 0.898408C35.708 1.05208 36.0464 1.27765 36.3315 1.56219C36.6165 1.84673 36.8426 2.18467 36.9968 2.55665C37.151 2.92862 37.2302 3.32734 37.23 3.72996V34.2666C37.2305 34.6693 37.1514 35.0682 36.9975 35.4403C36.8435 35.8125 36.6176 36.1506 36.3328 36.4355C36.0479 36.7203 35.7096 36.9462 35.3373 37.1003C34.9649 37.2543 34.5659 37.3335 34.1629 37.3333H3.60331C3.2006 37.3333 2.80185 37.254 2.42982 37.1C2.05779 36.9459 1.71978 36.7201 1.43511 36.4355C1.15043 36.1508 0.924664 35.8129 0.770708 35.4411C0.616752 35.0692 0.537623 34.6707 0.537842 34.2683V3.72996ZM15.0613 14.6466H20.0297V17.14C20.7469 15.7066 22.5815 14.4166 25.3384 14.4166C30.6238 14.4166 31.8763 17.2716 31.8763 22.51V32.2133H26.5276V23.7033C26.5276 20.72 25.8104 19.0366 23.9891 19.0366C21.4624 19.0366 20.4117 20.8516 20.4117 23.7033V32.2133H15.0613V14.6466ZM5.88823 31.985H11.2386V14.4166H5.88823V31.9833V31.985ZM12.0041 8.68663C12.0142 9.14442 11.9327 9.59961 11.7644 10.0255C11.596 10.4514 11.3443 10.8394 11.0239 11.1667C10.7034 11.494 10.3208 11.7541 9.89844 11.9316C9.47608 12.1092 9.02247 12.2007 8.56426 12.2007C8.10604 12.2007 7.65244 12.1092 7.23007 11.9316C6.8077 11.7541 6.42508 11.494 6.10466 11.1667C5.78424 10.8394 5.53247 10.4514 5.36413 10.0255C5.19579 9.59961 5.11428 9.14442 5.12436 8.68663C5.14417 7.78805 5.51528 6.93295 6.15823 6.30444C6.80117 5.67593 7.66484 5.32399 8.56426 5.32399C9.46367 5.32399 10.3273 5.67593 10.9703 6.30444C11.6132 6.93295 11.9843 7.78805 12.0041 8.68663Z" fill="#D3AF37"></path>
  </symbol>
  <symbol fill="none" xmlns="http://www.w3.org/2000/svg" viewBox="0 0 38 38" id="insta">
    <path fill-rule="evenodd" clip-rule="evenodd" d="M11.2683 0.776626C13.2247 0.686626 13.8484 0.666626 18.8319 0.666626C23.8153 0.666626 24.4391 0.688293 26.3938 0.776626C28.3485 0.864959 29.6827 1.17663 30.8502 1.62829C32.0727 2.08996 33.1818 2.81163 34.0991 3.74496C35.0331 4.65996 35.7536 5.76663 36.2139 6.98996C36.6676 8.15663 36.9778 9.48996 37.0678 11.44C37.1579 13.3983 37.1779 14.0216 37.1779 19C37.1779 23.98 37.1562 24.6033 37.0678 26.5583C36.9794 28.5083 36.6676 29.8416 36.2139 31.0083C35.7536 32.2318 35.0319 33.3403 34.0991 34.2566C33.1818 35.19 32.0727 35.91 30.8502 36.37C29.6827 36.8233 28.3485 37.1333 26.3971 37.2233C24.4391 37.3133 23.8153 37.3333 18.8319 37.3333C13.8484 37.3333 13.2247 37.3116 11.2683 37.2233C9.31695 37.135 7.9827 36.8233 6.81522 36.37C5.59091 35.9099 4.48164 35.1887 3.56464 34.2566C2.63129 33.3411 1.90902 32.2331 1.44817 31.01C0.996193 29.8433 0.685978 28.51 0.595916 26.56C0.505854 24.6016 0.48584 23.9783 0.48584 19C0.48584 14.02 0.507521 13.3966 0.595916 11.4433C0.684311 9.48996 0.996193 8.15663 1.44817 6.98996C1.9097 5.76676 2.63252 4.65881 3.56631 3.74329C4.48201 2.81079 5.59016 2.08903 6.81355 1.62829C7.98103 1.17663 9.31529 0.866626 11.2666 0.776626H11.2683ZM26.2453 4.07663C24.3107 3.98829 23.7303 3.96996 18.8319 3.96996C13.9335 3.96996 13.3531 3.98829 11.4184 4.07663C9.62884 4.15829 8.65816 4.45663 8.01105 4.70829C7.15546 5.04163 6.54337 5.43663 5.90126 6.07829C5.29258 6.67004 4.82414 7.39043 4.53031 8.18663C4.27847 8.83329 3.97993 9.80329 3.8982 11.5916C3.80981 13.525 3.79146 14.105 3.79146 19C3.79146 23.895 3.80981 24.475 3.8982 26.4083C3.97993 28.1966 4.27847 29.1666 4.53031 29.8133C4.82384 30.6083 5.2925 31.33 5.90126 31.9216C6.49333 32.53 7.2155 32.9983 8.01105 33.2916C8.65816 33.5433 9.62884 33.8416 11.4184 33.9233C13.3531 34.0116 13.9318 34.03 18.8319 34.03C23.7319 34.03 24.3107 34.0116 26.2453 33.9233C28.0349 33.8416 29.0056 33.5433 29.6527 33.2916C30.5083 32.9583 31.1204 32.5633 31.7625 31.9216C32.3712 31.33 32.8399 30.6083 33.1334 29.8133C33.3853 29.1666 33.6838 28.1966 33.7655 26.4083C33.8539 24.475 33.8723 23.895 33.8723 19C33.8723 14.105 33.8539 13.525 33.7655 11.5916C33.6838 9.80329 33.3853 8.83329 33.1334 8.18663C32.7999 7.33163 32.4046 6.71996 31.7625 6.07829C31.1703 5.47008 30.4494 5.00198 29.6527 4.70829C29.0056 4.45663 28.0349 4.15829 26.2453 4.07663ZM16.4886 24.6516C17.7973 25.196 19.2545 25.2695 20.6113 24.8595C21.9682 24.4495 23.1405 23.5815 23.9281 22.4037C24.7157 21.2259 25.0696 19.8114 24.9295 18.4018C24.7894 16.9922 24.1639 15.6749 23.1599 14.675C22.5198 14.0358 21.7459 13.5463 20.8939 13.2419C20.0418 12.9374 19.1328 12.8256 18.2323 12.9143C17.3318 13.0031 16.4622 13.2903 15.686 13.7552C14.9099 14.2201 14.2466 14.8512 13.7439 15.603C13.2411 16.3549 12.9114 17.2088 12.7785 18.1032C12.6457 18.9977 12.7129 19.9104 12.9754 20.7758C13.2379 21.6412 13.6891 22.4376 14.2966 23.1078C14.9041 23.778 15.6527 24.3053 16.4886 24.6516ZM12.1639 12.3366C13.0396 11.4616 14.0791 10.7675 15.2232 10.2939C16.3673 9.82032 17.5935 9.57658 18.8319 9.57658C20.0702 9.57658 21.2965 9.82032 22.4405 10.2939C23.5846 10.7675 24.6242 11.4616 25.4998 12.3366C26.3755 13.2117 27.0701 14.2505 27.544 15.3938C28.0179 16.5371 28.2618 17.7625 28.2618 19C28.2618 20.2375 28.0179 21.4628 27.544 22.6061C27.0701 23.7494 26.3755 24.7882 25.4998 25.6633C23.7314 27.4305 21.3328 28.4233 18.8319 28.4233C16.3309 28.4233 13.9324 27.4305 12.1639 25.6633C10.3955 23.8961 9.40197 21.4992 9.40197 19C9.40197 16.5007 10.3955 14.1039 12.1639 12.3366ZM30.3532 10.98C30.5702 10.7754 30.7439 10.5294 30.864 10.2566C30.9842 9.98374 31.0483 9.68957 31.0527 9.39151C31.057 9.09344 31.0015 8.79754 30.8894 8.52131C30.7772 8.24508 30.6107 7.99414 30.3998 7.78336C30.1889 7.57257 29.9378 7.40622 29.6614 7.29415C29.3849 7.18209 29.0888 7.12659 28.7905 7.13093C28.4923 7.13528 28.1979 7.19938 27.9249 7.31945C27.6518 7.43952 27.4057 7.61312 27.201 7.82996C26.8029 8.25167 26.585 8.81183 26.5934 9.39151C26.6019 9.97119 26.8361 10.5248 27.2463 10.9347C27.6565 11.3446 28.2105 11.5787 28.7905 11.5871C29.3706 11.5956 29.9312 11.3778 30.3532 10.98Z" fill="#D3AF37"></path>
  </symbol>
  <symbol fill="none" xmlns="http://www.w3.org/2000/svg" viewBox="0 0 41 30" id="youtube">
    <path d="M21.0638 0.997559H21.2865C23.3429 1.00506 33.7626 1.08006 36.572 1.83506C37.4214 2.06548 38.1953 2.51461 38.8165 3.13758C39.4377 3.76054 39.8844 4.53552 40.112 5.38506C40.3647 6.33506 40.5423 7.59256 40.6624 8.89006L40.6874 9.15006L40.7424 9.80006L40.7624 10.0601C40.9251 12.3451 40.9451 14.4851 40.9476 14.9526V15.1401C40.9451 15.6251 40.9226 17.9101 40.7424 20.2901L40.7224 20.5526L40.6999 20.8126C40.5748 22.2426 40.3897 23.6626 40.112 24.7076C39.8851 25.5574 39.4386 26.3328 38.8173 26.9559C38.196 27.5789 37.4217 28.0278 36.572 28.2576C33.67 29.0376 22.6399 29.0926 21.1113 29.0951H20.7561C19.9831 29.0951 16.7858 29.0801 13.4335 28.9651L13.0082 28.9501L12.7906 28.9401L12.3628 28.9226L11.935 28.9051C9.15806 28.7826 6.51373 28.5851 5.29539 28.2551C4.44603 28.0255 3.67193 27.577 3.05065 26.9544C2.42937 26.3318 1.98271 25.557 1.75544 24.7076C1.47775 23.6651 1.29262 22.2426 1.16753 20.8126L1.14752 20.5501L1.12751 20.2901C1.00404 18.5961 0.935622 16.8985 0.922363 15.2001L0.922363 14.8926C0.927367 14.3551 0.947381 12.4976 1.08247 10.4476L1.09999 10.1901L1.10749 10.0601L1.12751 9.80006L1.18254 9.15006L1.20756 8.89006C1.32764 7.59256 1.50527 6.33256 1.75794 5.38506C1.98483 4.53518 2.43131 3.75984 3.05262 3.13676C3.67393 2.51369 4.44823 2.06479 5.29789 1.83506C6.51624 1.51006 9.16057 1.31006 11.9375 1.18506L12.3628 1.16756L12.7931 1.15256L13.0082 1.14506L13.436 1.12756C15.8169 1.051 18.1988 1.00849 20.581 1.00006H21.0638V0.997559ZM16.9334 9.02256V21.0676L27.3331 15.0476L16.9334 9.02256Z" fill="#D3AF37"></path>
  </symbol>
</svg>